# xmcd
#
# Track frame offsets:
#	150
#	17717
#	37232
#	55655
#	71195
#	90922
#	111462
#	130805
#	149415
#	166427
#
# Disc length: 2467 seconds
#
# Revision: 1
# Processed by: cddbd v1.5PL3 Copyright (c) Steve Scherf et al.
# Submitted via: CDex 1.50Beta5
#
DISCID=8f09a10a
DTITLE=テレサ・テン - 時の流れに身をまかせ
DYEAR=1995
DGENRE=Pop
TTITLE0=黄昏
TTITLE1=悲しみが涙と踊ってる
TTITLE2=桃源郷
TTITLE3=スキャンダル
TTITLE4=傷心
TTITLE5=ジャスミン慕情
TTITLE6=愛に疲れて
TTITLE7=あなたの空
TTITLE8=エレジー
TTITLE9=時の流れに身をまかせ
EXTD=
EXTT0=
EXTT1=
EXTT2=
EXTT3=
EXTT4=
EXTT5=
EXTT6=
EXTT7=
EXTT8=
EXTT9=
PLAYORDER=
